<?xml version="1.0" encoding="UTF-8"?>
<svg version="1.1" viewBox="0 0 614 550" xmlns="http://www.w3.org/2000/svg" xmlns:xlink="http://www.w3.org/1999/xlink">
<title>Illustration/614x550</title>
<desc>Created with Sketch.</desc>
<defs>
<path id="b" d="m8 0h444c4.4183-8.1162e-16 8 3.5817 8 8v454c0 4.4183-3.5817 8-8 8h-444c-4.4183 0-8-3.5817-8-8v-454c-5.4108e-16 -4.4183 3.5817-8 8-8z"/>
</defs>
<g fill="none" fill-rule="evenodd">
<g transform="translate(68)">
<g transform="translate(19)">
<mask id="a" fill="white">
<use xlink:href="#b"/>
</mask>
<use fill="#FFFFFF" fill-opacity=".2" fill-rule="nonzero" xlink:href="#b"/>
<g fill="#BABEC9" fill-opacity=".5" mask="url(#a)">
<g transform="translate(10.19 8.19)">
<ellipse cx="2.548" cy="2.5466" rx="2.548" ry="2.5466"/>
<ellipse cx="12.74" cy="2.5466" rx="2.548" ry="2.5466"/>
<ellipse cx="22.932" cy="2.5466" rx="2.548" ry="2.5466"/>
</g>
</g>
<rect id="container" x="10" y="47" width="440" height="174" rx="1.71" fill="#fff" fill-opacity=".4" fill-rule="nonzero" mask="url(#a)"/>
<rect id="container" x="158" y="239" width="140" height="147" rx="1.9" fill="#fff" fill-opacity=".1" fill-rule="nonzero" mask="url(#a)"/>
<rect id="container" x="10" y="239" width="139" height="147" rx="1.9" fill="#fff" fill-opacity=".1" fill-rule="nonzero" mask="url(#a)"/>
<rect id="container" x="10" y="396" width="139" height="147" rx="1.9" fill="#fff" fill-opacity=".2" fill-rule="nonzero" mask="url(#a)"/>
<rect id="container" x="30" y="112" width="154" height="14" fill="#fff" fill-opacity=".4" fill-rule="nonzero" mask="url(#a)"/>
<rect id="container" x="30" y="134" width="154" height="7" fill="#fff" fill-opacity=".4" fill-rule="nonzero" mask="url(#a)"/>
<rect id="container" x="30" y="148" width="119" height="7" fill="#fff" fill-opacity=".4" fill-rule="nonzero" mask="url(#a)"/>
</g>
<rect id="container" x="228" y="376" width="119" height="125" rx="1.9" fill="#fff" fill-opacity=".2" fill-rule="nonzero"/>
<rect id="container" x="29" y="21" width="440" height="16" rx="1.9" fill="#fff" fill-opacity=".2" fill-rule="nonzero"/>
<circle cx="447" cy="68" r="13" fill="#fff" fill-opacity=".9" fill-rule="nonzero"/>
<rect id="container" y="182" width="257" height="23" rx="1.9" fill="#fff" fill-opacity=".5" fill-rule="nonzero"/>
<rect id="container" x="241" y="169" width="70" height="23" rx="1.9" fill="#fff" fill-opacity=".7" fill-rule="nonzero"/>
</g>
<g transform="translate(23 51)" fill="#fff" fill-rule="nonzero">
<rect id="container" x="59" y="8" width="55" height="16" rx="1.9" fill-opacity=".9"/>
<rect id="container" width="55" height="16" rx="1.9" fill-opacity=".9"/>
<rect id="c" x="124" y="12" width="35" height="10" rx="1.9" fill-opacity=".9"/>
<rect x="395" y="162" width="143" height="147" rx="1.9" fill-opacity=".7"/>
</g>
<g transform="translate(411 309)">
<ellipse cx="64" cy="224.5" rx="45" ry="10.5" fill="#551684" fill-opacity=".6"/>
<g transform="translate(60 96.5) scale(-1 1) translate(-69 -95.5)">
<path d="m68.144 102.01c0 0.729 0.627 0.121 0.715 0.952 0.087 0.832 2.64 12.399 3.704 14.995 1.065 2.596 5.077 9.51 5.179 11.902s0.437 14.381 0.437 14.381 0.715 5.879 1.415 7.469 4.113 5.514 4.478 8.183c0.364 2.669 1.225 3.558 0.773 5.091-0.452 1.531-0.321 2.538 0.204 4.113 0.526 1.575 0.817 4.069 0.452 5.659-0.364 1.59-1.502 5.689-1.823 7.512s-0.263 3.413 0.161 4.872c0.423 1.458 2.961 2.602 3.77 3.073 0 0 2.053 1.046 3.564 0.465s4.067-3.215 4.067-7.477c0-4.26 0.194-7.475 0-8.405s-1.627-6.081-1.588-7.592c0.039-1.51-0.077-2.595-0.387-3.564-0.31-0.968-0.388-4.609-0.349-6.004s1.433-7.359-0.426-15.339c-1.86-7.979-3.293-11.079-3.331-14.526-0.039-3.448 1.084-8.948 0.89-14.216-0.193-5.269-0.193-12.705-2.711-20.026l-4.475-7.617h-12.245-4.947-10.673l-6.048 7.617c-2.517 7.321-2.517 14.757-2.711 20.026-0.194 5.268 0.929 10.768 0.891 14.216-0.039 3.447-1.472 6.547-3.332 14.526-1.859 7.98-0.465 13.944-0.426 15.339s-0.039 5.036-0.349 6.004c-0.309 0.969-0.425 2.054-0.387 3.564 0.039 1.511-1.394 6.662-1.588 7.592s0 4.145 0 8.405c0 4.262 2.556 6.896 4.067 7.477s3.564-0.465 3.564-0.465c0.81-0.471 3.347-1.615 3.771-3.073 0.423-1.459 0.481-3.049 0.16-4.872s-1.459-5.922-1.823-7.512c-0.365-1.59-0.073-4.084 0.452-5.659s0.656-2.582 0.204-4.113c-0.452-1.533 0.409-2.422 0.773-5.091 0.365-2.669 3.778-6.593 4.478-8.183s1.415-7.469 1.415-7.469 0.335-11.989 0.437-14.381 4.114-9.306 5.179-11.902 3.617-14.163 3.704-14.995c0.088-0.831 0.715-0.223 0.715-0.952" fill="#FFA08C"/>
<path d="m73.067 38.58-2.393-11.506s1.721 0.716 2.976-0.912 0.217-7.244 0.217-7.244 0.958-0.183 1.391-0.715c0.434-0.531-2.826-5.57-3.274-6.881-0.449-1.311-0.255-2.374-0.608-3.124-0.353-0.751-1.057-2.059-1.057-2.059s-1.015 4.278-2.394 5.596-0.567 3.15-0.205 3.606c0.363 0.456 0.912 1.651 0.912 1.651s-0.689-1.028-2.047-1.423c-1.358-0.394-3.714 0.398-3.783 2.327-0.069 1.931 1.953 3.494 1.37 5.11-0.584 1.616-2.918 5.64-5.888 6.298l-2.97 0.657s1.302 2.414 0.444 3.432c0 0 12.707 8.743 17.309 5.187" fill="#FFA08C"/>
<path d="m71.047 1.7467c-1.545-2.561-4.492-2.041-8.029-0.144-3.536 1.898-4.345-0.476-6.236-0.326-1.89 0.151-4.402 3.408-5.268 4.754-0.867 1.348-1.925 3.12-1.588 7.294 0.338 4.173 2.582 6.629 3.149 7.733 0.566 1.103 1.201 2.5 1 5.145-0.2 2.645 1.646 4.128 1.646 4.128l2.971-0.658c2.97-0.657 5.304-4.681 5.888-6.297 0.583-1.616-1.439-3.18-1.37-5.109 0.069-1.931 2.424-2.722 3.783-2.328 1.359 0.395 2.047 1.423 2.047 1.423s-0.55-1.195-0.912-1.652c-0.363-0.456-1.174-2.287 0.205-3.605s2.019-3.121 2.019-3.121 0.486-0.525 0.913-0.644c0.373-0.105 0.668-0.384 0.726-0.767 0.203-1.32 0.321-3.729-0.944-5.826" fill="#000"/>
<path id="d" transform="translate(113.98 39.669) scale(-1 1) translate(-113.98 -39.669)" d="m131.48 59.232s-2.7948 1.3306-9.3057 2.7635c-6.5109 1.4329-8.7517-1.959-10.479-4.0236-1.7283-2.0653-18.349-22.254-18.349-22.254s-2.4603-3.3288-2.95-4.2066c-0.49037-0.87777-0.79123-2.5891 0.47083-3.4404 0 0-0.38943-1.6651 1.3448-1.8989 0 0-0.1042-1.5957 1.7173-1.599 0 0-0.25463-3.5388-0.39399-4.3076-0.13871-0.76879-0.2937-2.92 0.21816-3.2145 0.51251-0.29589 1.1644 0.71397 1.7602 2.6168 0.59587 1.9028 1.4985 6.1266 2.0142 7.5202 0 0 0.55354 1.7621 1.2282 1.599 0.67401-0.1638 0.58675-2.8466 0.65969-3.4629 0.072937-0.61754 0.54312-0.79389 0.77951-0.20937 0.23509 0.58518 1.3148 2.3817 0.95534 4.0335-0.35817 1.6518-0.6942 3.202-0.24551 3.9206 0.44869 0.71992 10.313 7.9521 12.128 8.8808 1.8149 0.92863 7.0744 5.1958 7.7562 5.999 0.68183 0.8038 11.809-4.9344 11.858-5.4496 0.049492-0.51451 5.3589 14.517 5.3589 14.517l-6.5248 2.2166z" fill="#FFA08C"/>
<path transform="translate(24.327 54.865) rotate(10) translate(-24.327 -54.865)" d="m40 65.014s-5.1405 9.2834-10.716 10.267c-5.5755 0.98311-8.9616-3.9716-10.689-6.0362-1.7283-2.0653-11.82-16.204-11.82-16.204s-2.4603-3.3288-2.95-4.2066c-0.49037-0.87777-0.79123-2.5891 0.47083-3.4404 0 0-0.38943-1.6651 1.3448-1.8989 0 0-0.1042-1.5957 1.7173-1.599 0 0-0.25463-3.5388-0.39399-4.3076-0.13871-0.76879-0.2937-2.92 0.21816-3.2145 0.51251-0.29589 1.1644 0.71397 1.7602 2.6168 0.59587 1.9028 1.4985 6.1266 2.0142 7.5202 0 0 0.55354 1.7621 1.2282 1.599 0.67401-0.1638 0.58675-2.8466 0.65969-3.4629 0.072937-0.61754 0.54312-0.79389 0.77951-0.20937 0.23509 0.58518 1.3148 2.3817 0.95534 4.0335-0.35817 1.6518-0.6942 3.202-0.24551 3.9206 0.44869 0.71992 10.264 7.6702 12.078 8.5988 1.8149 0.92863 2.8813-2.6089 3.85-4.0284 0.64581-0.94631 1.6192-2.9338 2.92-5.9626 8.0466 5.0823 12.07 7.6234 12.07 7.6234-3.501 5.5946-5.2515 8.3918-5.2515 8.3918z" fill="#FFA08C"/>
<path d="m68.727 102.94 2.157 11.239s0.403 5.551 2.372 9.49c1.97 3.94 4.298 11.639 4.298 13.242 0 1.601-0.358 12.185 1.611 17.199 1.97 5.014 3.939 15.578 3.939 15.578h13.388s-1.0331-7.342-0.13708-13.788c0.895-6.446-2.865-18.085-3.402-23.16-0.538-5.076-0.179-25.186-0.716-29.662-0.538-4.477-6.747-16.619-6.747-16.619h-33.525s-6.21 12.142-6.747 16.619c-0.538 4.476-0.179 24.586-0.717 29.662-0.537 5.075-4.297 16.714-3.402 23.16 0.896 6.446-0.13708 13.788-0.13708 13.788h13.388s1.969-10.564 3.939-15.578c1.969-5.014 1.611-15.598 1.611-17.199 0-1.603 2.328-9.302 4.298-13.242 1.969-3.939 2.372-9.49 2.372-9.49l2.157-11.239" fill="#000"/>
<path d="m26.686 57.091 12.053 11.507s5.51-4.79 6.359-5.402c0.848-0.611 6.519 7.063 6.111 15.347-0.407 8.284-2.988 12.631-2.988 12.631h40.387s-3.259-22.545-0.815-26.212c2.445-3.667 3.285-6.164 3.285-6.164l6.824 2.43 3.488-16.486s-7.265-7.213-11.882-9.659c-4.618-2.444-19.421-3.803-19.421-3.803l-18.335 1.087s-14.396 5.297-16.705 9.236c-2.308 3.938-8.361 15.488-8.361 15.488" fill="#5436FF"/>
</g>
</g>
</g>
</svg>
