<?xml version="1.0" encoding="UTF-8"?>
<svg width="30px" height="32px" viewBox="0 0 30 32" version="1.1" xmlns="http://www.w3.org/2000/svg" xmlns:xlink="http://www.w3.org/1999/xlink">
    <!-- Generator: Sketch 63.1 (92452) - https://sketch.com -->
    <title>Logo/Competitors/Angular</title>
    <desc>Created with Sketch.</desc>
    <g id="Page-1" stroke="none" stroke-width="1" fill="none" fill-rule="evenodd">
        <g id="hp-1921" transform="translate(-531.000000, -740.000000)">
            <g id="1-hero" transform="translate(-1.000000, 108.000000)">
                <g id="left-side" transform="translate(339.000000, 312.000000)">
                    <g id="build-with" transform="translate(0.000000, 318.000000)">
                        <g id="Logo/Competitors/Angular" transform="translate(190.000000, 0.000000)">
                            <g id="Angular" transform="translate(3.000000, 2.500000)">
                                <polygon id="Fill-1" fill="#DD0031" points="15 0.0427807487 0 5.27178075 2.28802363 24.6600307 15 31.5427807 27.7122986 24.6600307 30 5.27178075"></polygon>
                                <polygon id="Fill-2" fill="#C3002F" points="15 0.0427807487 15 3.53928075 15 3.52353075 15 19.4782807 15 31.5427807 27.7122986 24.6600307 30 5.27178075"></polygon>
                                <path d="M17.6488812,16.4473784 L12.3820998,16.4473784 L15.0154905,9.86576925 L17.6488812,16.4473784 Z M15.0154905,3.04278075 L6,24.0427807 L9.36144578,24.0427807 L11.1738382,19.3439302 L18.8261618,19.3439302 L20.6385542,24.0427807 L24,24.0427807 L15.0154905,3.04278075 Z" id="Fill-3" fill="#FFFFFF"></path>
                            </g>
                        </g>
                    </g>
                </g>
            </g>
        </g>
    </g>
</svg>