<?xml version="1.0" encoding="UTF-8"?>
<svg width="28px" height="21px" viewBox="0 0 28 21" version="1.1" xmlns="http://www.w3.org/2000/svg" xmlns:xlink="http://www.w3.org/1999/xlink">
    <!-- Generator: Sketch 63.1 (92452) - https://sketch.com -->
    <title>Logo/Competitors/JS</title>
    <desc>Created with Sketch.</desc>
    <g id="Page-1" stroke="none" stroke-width="1" fill="none" fill-rule="evenodd">
        <g id="hp-1921" transform="translate(-688.000000, -746.000000)" fill="#F5DE19">
            <g id="1-hero" transform="translate(-1.000000, 108.000000)">
                <g id="left-side" transform="translate(339.000000, 312.000000)">
                    <g id="build-with" transform="translate(0.000000, 318.000000)">
                        <g id="Logo/Competitors/JS" transform="translate(346.000000, 0.000000)">
                            <g id="file_type_js" transform="translate(4.000000, 7.500000)">
                                <path d="M17.1716469,14.6303991 C17.9009609,16.1088122 19.4123499,17.0391043 21.0607987,17.024255 C22.6943346,17.024255 23.7380465,16.207487 23.7380465,15.0796791 C23.7380465,13.7283832 22.6655346,13.2491512 20.8684147,12.4623353 L19.8823028,12.0395513 C17.0380149,10.8276474 15.147583,9.30931145 15.147583,6.09983964 C15.147583,3.14265581 17.4008949,0.892799947 20.9214067,0.892799947 C23.2574235,0.723296734 25.4678818,1.9689769 26.5327984,4.05503976 L23.4627185,6.02611164 C23.0511451,4.99089106 22.0422082,4.31811355 20.9283187,4.33612774 C20.4488388,4.28788236 19.9711796,4.44355339 19.6122018,4.76505546 C19.253224,5.08655753 19.0460418,5.5442335 19.0413428,6.02611164 C19.0413428,7.20921557 19.7740148,7.68729554 21.4605427,8.4199675 L22.4466546,8.84159947 C25.7966704,10.2781434 27.6871023,11.7423353 27.6871023,15.0347511 C27.6871023,18.5840629 24.8992625,20.5286388 21.1541107,20.5286388 C18.1740604,20.7181927 15.360745,19.1391991 13.9702391,16.496639 L17.1716469,14.6303991 Z M3.24627175,14.9759991 C3.86604771,16.075007 4.42937568,17.003519 5.7806716,17.003519 C7.07551952,17.003519 7.89343947,16.496639 7.89343947,14.5267191 L7.89343947,1.12319993 L11.8355832,1.12319993 L11.8355832,14.5820151 C11.8355832,18.6635509 9.44172738,20.5217268 5.94886359,20.5217268 C3.42334122,20.658445 1.07392951,19.2273731 0.0367999382,16.920575 L3.24627175,14.9759991 Z" id="Shape" fill-rule="nonzero"></path>
                            </g>
                        </g>
                    </g>
                </g>
            </g>
        </g>
    </g>
</svg>