<?xml version="1.0" encoding="UTF-8"?>
<svg width="30px" height="28px" viewBox="0 0 30 28" version="1.1" xmlns="http://www.w3.org/2000/svg" xmlns:xlink="http://www.w3.org/1999/xlink">
    <!-- Generator: Sketch 62 (91390) - https://sketch.com -->
    <title>Logo/Competitors/reactjs (24)</title>
    <desc>Created with Sketch.</desc>
    <g id="Homepage-v23-(27Jan20)" stroke="none" stroke-width="1" fill="none" fill-rule="evenodd">
        <g id="homepage-1921" transform="translate(-427.000000, -818.000000)" fill="#00D8FF">
            <g id="Section-#1-Hero" transform="translate(0.000000, 110.000000)">
                <g id="build-with" transform="translate(338.000000, 704.000000)">
                    <g id="Logo/Competitors/reactjs" transform="translate(86.000000, 0.000000)">
                        <path d="M25.4698929,4.81870169 C27.0112353,5.72260963 27.5133127,8.53575618 26.7812628,12.162064 C26.7253782,12.4366806 26.6613552,12.7172679 26.5894604,13.0031532 C26.9808937,13.1137312 27.359049,13.232451 27.7229212,13.3588524 C30.979402,14.497634 33,16.2680836 33,17.9780355 C33,19.7858513 30.8459828,21.6292541 27.3770847,22.7929466 C27.1429933,22.8715358 26.9015539,22.9468235 26.6532759,23.0187378 C26.7380609,23.3558013 26.8119852,23.6847271 26.8741296,24.0053932 C27.5500029,27.4733392 27.0057932,30.2864858 25.485517,31.1726003 C25.1098367,31.3914599 24.6674469,31.5 24.1723916,31.5 C22.7434022,31.5 20.882556,30.6067681 18.9918661,28.9573141 C18.6806086,28.6861277 18.3683582,28.3954091 18.0563391,28.0867337 C17.8038305,28.3382657 17.5521033,28.5752401 17.3014805,28.7971729 C15.34057,30.5373736 13.3463046,31.494662 11.8295395,31.494662 C11.32044,31.494662 10.8640061,31.3861218 10.4813038,31.1619242 C9.01895956,30.3096173 8.50108257,27.7010956 9.13131254,24.3523658 C9.2083374,23.9421737 9.30148528,23.5214602 9.41003123,23.0920891 C9.06972096,22.997645 8.74221787,22.8958566 8.42805313,22.7876086 C5.12943999,21.6417096 3,19.7556024 3,17.9780355 C3,16.2716423 4.97144362,14.5136481 8.14365966,13.3873219 C8.55401959,13.2424381 8.98319615,13.1074833 9.42889896,12.9827982 C9.32581886,12.5808757 9.23721256,12.186355 9.16273626,11.8008567 C8.50441805,8.37561501 9.00298438,5.71549224 10.4635731,4.85784731 C12.010182,3.95038067 14.664521,4.91300704 17.3925917,7.37384303 C17.6007227,7.56108799 17.8099141,7.75862268 18.0197131,7.96586194 C18.3104892,7.67476763 18.6015935,7.40201155 18.8919773,7.14608669 C21.4901399,4.85606796 24.0093042,3.96461545 25.4698929,4.81870169 Z M25.7477113,23.2593723 L25.5958411,23.2950835 C24.3221901,23.5944623 22.9078173,23.8142779 21.408624,23.9466429 C20.5192946,25.2590514 19.6131325,26.4205075 18.7101987,27.404602 C19.0090947,27.7024856 19.3074462,27.9810648 19.6027854,28.2384582 C21.7690912,30.128124 23.9459301,30.9786515 25.0185499,30.3505423 C25.9437065,29.8131797 26.6318685,27.6530532 25.9559951,24.1868866 C25.8974966,23.8854644 25.8279916,23.5760999 25.7477113,23.2593723 Z M10.319106,23.3249222 L10.2473025,23.6110764 C10.1719213,23.9243781 10.1058186,24.2311725 10.049447,24.5303004 C9.51401486,27.3790339 9.875651,29.7153156 10.9482708,30.3398662 C11.8734274,30.8807875 14.0660659,30.405702 16.6852946,28.083655 C16.9226739,27.8735459 17.1612344,27.6490985 17.4005602,27.4108529 C16.4582914,26.4023782 15.5259697,25.2388095 14.6376734,23.964403 C13.0658852,23.8406844 11.6153802,23.6255792 10.319106,23.3249222 Z M20.2056793,24.0332047 L19.752947,24.0555 C19.1762927,24.080798 18.5907309,24.0936488 17.9991222,24.0936488 C17.2659212,24.0936488 16.550524,24.0766728 15.8555247,24.0430834 C16.5714975,25.0223534 17.3133169,25.927614 18.054785,26.7268626 C18.7725657,25.9422659 19.4929161,25.0397586 20.2056793,24.0332047 Z M17.9991222,12.8641941 C17.0359528,12.8641941 16.0750315,12.9031994 15.1347968,12.9784509 C14.6045218,13.7615555 14.0923268,14.5839995 13.6061209,15.4360613 C13.1247295,16.2839492 12.6778605,17.1487294 12.2723397,18.012922 C12.6770347,18.868913 13.1248132,19.7296649 13.6112119,20.5819309 C14.0979418,21.4331217 14.616738,22.2619675 15.1557318,23.0533748 C16.0651622,23.1142394 17.0151478,23.1452572 17.9991222,23.1452572 C18.9837535,23.1452572 19.9499717,23.1090888 20.8839796,23.0386495 C21.3942257,22.2669104 21.8983086,21.4422782 22.3924747,20.5712548 C22.8848415,19.7075523 23.3369892,18.8419705 23.7436739,17.9874472 C23.339018,17.1541868 22.8862577,16.2984423 22.3887881,15.4271645 C21.9021979,14.5730939 21.3942957,13.7527665 20.8733213,12.9768007 C19.935283,12.9026637 18.9728685,12.8641941 17.9991222,12.8641941 Z M11.7709631,19.1283456 L11.5682687,19.6133123 C11.1762567,20.5682732 10.8408646,21.5090581 10.5715444,22.4114616 C11.6016839,22.6477817 12.7358206,22.8292655 13.9554731,22.9524991 C13.5592225,22.3403651 13.1733232,21.707976 12.8019194,21.0587957 L12.8001638,21.0570164 C12.4355444,20.4175573 12.0918191,19.7730039 11.7709631,19.1283456 Z M24.2549935,19.0818397 L24.0484701,19.4879459 C23.7816237,20.0067078 23.4996196,20.5270677 23.2035227,21.0463403 C22.8330012,21.6989263 22.4565246,22.3266827 22.0757802,22.9274279 C23.2963853,22.7935431 24.446303,22.5980105 25.4927602,22.3462146 C25.1802048,21.318494 24.7653047,20.2244791 24.2549935,19.0818397 Z M9.6803269,13.8995272 L9.28994841,14.0121612 C9.00132369,14.0984493 8.72187095,14.1891516 8.45263035,14.2841125 C5.75089239,15.2414008 3.93568962,16.7253756 3.93568962,17.9780355 C3.93568962,19.0580987 5.43665516,20.744919 8.73175727,21.8890387 C9.02885577,21.9916366 9.33880639,22.0881925 9.66092998,22.1786162 C10.0548796,20.8386954 10.5870458,19.4311279 11.236496,18.0079792 C10.597026,16.6079148 10.0716134,15.2213927 9.6803269,13.8995272 Z M26.3380762,13.9175364 L26.3199404,13.9784081 C25.9389015,15.2476788 25.4193984,16.6000868 24.7822758,17.9830548 C25.4656569,19.4326985 26.0087214,20.8175529 26.3983197,22.1064001 C26.6340959,22.0382687 26.8624868,21.9669715 27.0839136,21.8925974 C30.5247235,20.739581 32.0643104,19.0936856 32.0643104,17.9780355 C32.0643104,16.7235963 30.1964422,15.2289454 27.4174615,14.2574223 C27.0709653,14.1367719 26.7106701,14.0234034 26.3380762,13.9175364 Z M17.9991222,15.2266322 C19.4983323,15.2266322 20.7131488,16.4579399 20.7131488,17.9775016 C20.7131488,19.4952841 19.4983323,20.7265917 17.9991222,20.7265917 C16.4999122,20.7265917 15.2868512,19.4952841 15.2868512,17.9775016 C15.2868512,16.4579399 16.4999122,15.2266322 17.9991222,15.2266322 Z M13.929554,13.0967444 L13.6487963,13.129622 C12.5770095,13.2625061 11.5473129,13.4433223 10.5895473,13.6676054 C10.8993391,14.7088036 11.2955395,15.7925759 11.7678597,16.8922461 C11.9986489,16.4283362 12.2411797,15.9637452 12.4948557,15.5007539 L12.7950729,14.9627552 C13.1597276,14.3233996 13.5389759,13.6999958 13.929554,13.0967444 Z M22.0769712,13.0955182 L22.3373471,13.508226 C22.6304316,13.977017 22.917845,14.4583573 23.1980806,14.9502997 C23.5716572,15.6048994 23.9208781,16.2516131 24.2447075,16.8879102 C24.726442,15.7798483 25.1254833,14.7015424 25.4302296,13.6813272 C24.3835486,13.4289905 23.2557241,13.2325855 22.0769712,13.0955182 Z M19.5064076,7.86138392 C19.229618,8.10542145 18.9520286,8.36554123 18.6745808,8.6405221 C19.5907235,9.62859674 20.5093629,10.7872111 21.3933341,12.0698053 C22.9073647,12.2105897 24.3554389,12.4453 25.6826315,12.7653804 C25.7500333,12.4951368 25.8104211,12.2296651 25.8631283,11.9698946 C26.5899116,8.37383567 25.9544151,6.19947444 25.0029259,5.64075969 C23.9320616,5.01442978 21.7236234,5.9058823 19.5064076,7.86138392 Z M10.9322956,5.67990531 C9.86143133,6.30801457 9.51910586,8.69589735 10.0826263,11.6193634 C10.1537116,11.9871101 10.2382484,12.3636614 10.3356686,12.7475443 C11.6618379,12.4334241 13.1077645,12.2031164 14.6222517,12.0652275 C15.5020677,10.8011749 16.4270222,9.64516444 17.362956,8.64089986 C17.1639618,8.44587576 16.966134,8.2591014 16.7693838,8.08202287 C14.0641348,5.64253904 11.8890514,5.11763187 10.9322956,5.67990531 Z M18.0186184,9.32018493 L17.7957495,9.56155209 C17.1333908,10.2933837 16.4775781,11.1033117 15.8413096,11.9744753 C16.5508188,11.9346419 17.2717531,11.9140231 17.9991222,11.9140231 C18.7329386,11.9140231 19.4609662,11.9354872 20.1777857,11.9775809 C19.4681057,10.9956375 18.7419619,10.1014802 18.0186184,9.32018493 Z" id="reactjs"></path>
                    </g>
                </g>
            </g>
        </g>
    </g>
</svg>